<?xml version="1.0" standalone="no"?>
<!DOCTYPE svg PUBLIC "-//W3C//DTD SVG 20010904//EN"
 "http://www.w3.org/TR/2001/REC-SVG-20010904/DTD/svg10.dtd">
<svg version="1.0" xmlns="http://www.w3.org/2000/svg"
 width="600.000000pt" height="400.000000pt" viewBox="0 0 600.000000 400.000000"
 preserveAspectRatio="xMidYMid meet">
<g transform="translate(0.000000,400.000000) scale(0.100000,-0.100000)"
fill="#000000" stroke="none">
<path d="M2888 3031 c15 -9 -63 -106 -106 -133 -20 -12 -50 -22 -68 -23 -18 0
-36 -4 -41 -9 -5 -5 -2 -6 6 -1 10 6 12 4 6 -4 -4 -7 -15 -11 -25 -8 -12 3
-17 0 -14 -8 6 -15 -100 -57 -123 -48 -10 4 -14 2 -10 -4 4 -6 -8 -9 -28 -8
-18 0 -31 -3 -28 -8 3 -5 -4 -6 -17 -2 -17 5 -21 4 -15 -6 6 -8 4 -11 -6 -7
-10 4 -15 -1 -15 -13 0 -11 4 -15 11 -9 5 4 48 16 95 25 105 21 137 34 182 74
48 42 60 39 18 -4 -43 -45 -33 -44 32 2 72 50 154 130 169 165 6 15 15 28 20
28 4 0 -8 -39 -27 -87 -20 -49 -45 -112 -56 -140 -11 -29 -25 -53 -29 -53 -14
0 -11 18 7 46 9 13 14 27 11 31 -4 3 3 17 13 31 11 13 20 31 20 40 0 8 -15 -5
-34 -28 -19 -24 -41 -45 -49 -46 -7 -1 -34 -14 -58 -30 -25 -15 -58 -28 -76
-28 -18 0 -28 -3 -22 -7 16 -10 -34 -18 -108 -18 -34 0 -85 -7 -114 -15 -28
-9 -55 -13 -60 -11 -4 3 -10 1 -14 -5 -4 -6 -11 -7 -17 -4 -6 4 -8 2 -5 -3 4
-6 -3 -13 -15 -16 -12 -4 -20 -8 -17 -11 3 -3 32 2 64 11 43 12 96 17 188 16
79 -1 127 3 127 9 0 6 7 8 15 4 8 -3 15 0 15 6 0 7 9 2 20 -10 12 -12 25 -22
31 -22 6 0 7 -4 4 -10 -3 -5 -1 -10 5 -10 7 0 10 6 7 14 -3 8 1 17 9 20 9 3
13 9 10 14 -2 4 4 13 14 20 14 9 19 8 24 -3 3 -8 11 -15 18 -14 10 0 10 2 0 6
-6 2 -9 9 -6 14 3 6 11 5 20 -2 12 -10 13 -8 8 7 -4 10 -3 16 1 11 5 -4 16 0
25 8 14 13 16 12 16 -4 0 -11 -6 -17 -13 -14 -7 3 -13 0 -13 -6 0 -6 5 -11 11
-11 5 0 7 -6 3 -12 -6 -10 -4 -10 8 0 13 10 17 10 22 -4 9 -23 8 -26 -6 -18
-9 5 -9 3 1 -9 7 -9 16 -15 20 -13 4 3 13 0 21 -5 13 -8 13 -10 0 -19 -8 -5
-22 -10 -30 -10 -12 0 -12 2 -2 9 11 7 11 9 -2 14 -9 4 -15 1 -13 -6 1 -7 -4
-11 -12 -9 -22 5 -45 -7 -59 -29 -8 -12 -9 -18 -3 -14 15 9 14 -18 -1 -35 -11
-12 -10 -12 2 -3 9 7 20 9 25 5 14 -10 18 -42 5 -42 -5 0 -10 -11 -10 -25 0
-31 -5 -31 -42 1 -17 14 -37 23 -44 20 -7 -3 -15 0 -17 7 -3 9 -9 8 -22 -3
-11 -9 -16 -10 -11 -2 4 6 3 12 -1 12 -5 0 -15 -6 -22 -12 -11 -10 -12 -10 -7
-1 5 10 1 11 -17 4 -16 -6 -28 -6 -35 1 -7 7 -16 6 -29 -1 -16 -11 -15 -11 7
-6 19 5 22 4 10 -4 -8 -6 -22 -11 -30 -11 -8 0 -28 -13 -43 -30 -16 -16 -33
-30 -39 -30 -6 0 -8 -6 -5 -14 3 -8 -1 -20 -9 -26 -8 -7 -14 -20 -14 -29 0
-14 -2 -14 -10 -1 -6 10 -5 17 5 23 17 9 20 37 5 37 -15 0 -50 -79 -50 -115
-1 -161 135 -255 369 -255 148 0 250 -17 327 -55 38 -19 79 -44 90 -56 15 -17
8 -15 -39 11 -34 19 -76 34 -100 36 -23 1 -78 5 -122 8 l-80 5 75 -13 c41 -8
95 -21 119 -30 52 -19 65 -20 55 -4 -4 7 -3 8 5 4 6 -4 9 -11 6 -16 -3 -4 7
-15 20 -24 14 -9 23 -21 20 -27 -4 -5 -2 -8 3 -7 5 2 19 -8 31 -22 l22 -25
-13 25 c-7 14 -25 37 -40 51 -35 32 -25 45 14 18 43 -31 70 -93 74 -169 3 -46
1 -56 -5 -35 -12 47 -37 87 -73 121 -45 42 -109 84 -128 84 -8 -1 1 -9 20 -19
37 -20 90 -71 73 -71 -5 0 -20 11 -32 24 -52 55 -128 73 -411 95 -138 11 -204
26 -194 43 4 6 3 8 -4 5 -15 -10 -43 3 -35 17 3 6 3 8 -1 5 -7 -7 -35 13 -87
63 -16 14 -29 23 -29 18 0 -5 14 -21 31 -37 18 -15 40 -36 51 -46 32 -30 111
-74 163 -91 60 -19 175 -36 175 -25 0 4 -8 9 -17 12 -10 2 10 4 43 3 34 -1 60
-4 58 -7 -2 -4 22 -9 54 -13 31 -4 84 -18 116 -31 33 -13 64 -21 70 -18 6 3 8
3 4 -2 -4 -4 6 -18 22 -30 16 -12 39 -33 50 -47 21 -28 52 -142 41 -154 -3 -4
-1 -4 6 0 13 7 14 64 1 72 -12 8 -10 42 4 50 7 4 8 3 4 -4 -4 -6 1 -23 10 -37
13 -21 19 -23 31 -13 11 9 13 27 9 77 -8 111 -11 124 -26 128 -13 4 -13 3 0
-7 13 -10 13 -11 0 -7 -8 2 -15 15 -15 30 0 35 -45 79 -108 106 -29 13 -68 31
-88 41 -30 16 -101 36 -191 55 -67 14 -118 69 -118 129 0 30 -3 37 -10 26 -5
-8 -10 -30 -10 -47 0 -35 27 -66 97 -109 46 -28 27 -32 -25 -5 -55 29 -109 91
-123 144 -9 32 -9 32 -4 -6 2 -20 11 -44 19 -53 9 -8 16 -19 16 -24 0 -5 14
-25 31 -45 17 -19 27 -35 23 -35 -17 0 -75 41 -70 49 3 4 -3 16 -13 25 -25 23
-32 65 -20 111 8 28 13 35 20 24 7 -11 9 -11 9 3 0 23 66 88 90 88 10 0 22 5
26 12 5 7 2 9 -7 6 -8 -3 -38 -11 -68 -19 -51 -13 -111 -55 -111 -78 0 -6 15
6 33 26 19 20 40 34 47 31 10 -3 0 -19 -33 -52 -46 -47 -58 -64 -36 -50 7 4 9
0 5 -14 -4 -11 0 -38 8 -61 15 -45 7 -52 -23 -22 -48 48 -34 148 29 205 83 74
216 84 353 26 108 -47 105 -46 87 -27 -19 20 -126 68 -134 60 -3 -4 -6 -2 -6
4 0 5 -18 16 -40 23 -42 14 -55 40 -19 40 16 0 19 4 13 23 -8 28 -24 48 -33
42 -4 -2 -8 2 -8 10 0 22 10 18 39 -12 17 -18 25 -37 23 -53 -2 -20 2 -26 16
-26 11 0 19 4 19 8 0 4 -7 8 -15 8 -8 0 -15 5 -15 11 0 6 9 8 22 3 19 -6 18
-3 -7 19 -39 33 -26 45 21 18 27 -16 40 -19 49 -11 10 8 15 8 20 -1 10 -15
-15 -30 -40 -24 -13 3 -12 1 5 -8 42 -20 65 -41 68 -62 3 -15 1 -17 -8 -8 -7
6 -19 9 -27 6 -13 -5 -13 -2 -4 16 16 29 -10 39 -51 19 l-31 -14 84 -33 c81
-32 176 -84 191 -105 4 -6 10 -3 14 8 5 13 1 24 -14 37 -15 12 -18 19 -10 22
15 5 18 2 -55 51 -59 40 -103 89 -93 105 7 10 -22 50 -81 112 l-43 45 25 24
c14 13 25 30 25 38 0 8 6 12 15 9 8 -4 17 -1 21 5 4 6 3 8 -4 4 -6 -3 -13 -2
-17 4 -3 5 -2 10 4 10 27 0 47 134 25 164 l-16 21 6 -21 c4 -11 -3 -50 -13
-85 -22 -68 -81 -172 -88 -152 -4 11 10 41 43 93 9 14 10 18 3 10 -19 -21 -95
-80 -103 -80 -10 0 12 25 71 82 28 27 59 64 67 83 16 33 13 65 -6 65 -6 0 -5
-6 2 -15 11 -13 7 -19 -12 -17 -3 1 -9 -5 -12 -14 -3 -8 -2 -12 4 -9 6 3 10 4
10 1 0 -3 -12 -13 -27 -21 -16 -9 -19 -13 -8 -10 20 6 20 6 0 -13 -11 -11 -23
-18 -27 -15 -9 5 12 53 24 53 4 0 8 5 8 11 0 5 -6 7 -12 3 -9 -6 -9 -3 1 9 7
9 11 24 7 32 -3 9 -2 13 4 10 6 -3 10 -2 10 3 0 17 -24 30 -54 30 -15 0 -23
-3 -18 -7z m13 -174 c-10 -9 -11 -8 -5 6 3 10 9 15 12 12 3 -3 0 -11 -7 -18z
m-102 -74 c-19 -21 -42 -49 -52 -63 l-18 -25 6 25 c4 14 9 34 11 45 5 19 4 19
-9 3 -14 -18 -40 -30 -90 -42 -17 -4 -26 -3 -23 2 3 6 17 13 32 16 14 4 44 18
66 32 22 14 37 20 33 12 -3 -7 1 -4 10 7 9 11 22 19 30 17 7 -1 17 2 20 8 4 6
9 9 12 6 3 -3 -9 -23 -28 -43z m164 -165 c10 -5 14 -14 11 -20 -5 -7 -2 -9 9
-5 9 3 18 -1 21 -10 5 -11 2 -13 -11 -8 -90 35 -126 46 -140 41 -13 -5 -14 -4
-4 8 13 15 80 12 114 -6z m42 2 c30 -19 54 -51 37 -50 -11 1 -88 70 -78 70 5
0 23 -9 41 -20z m-360 -125 c-16 -14 -33 -25 -37 -25 -5 0 -8 -5 -8 -12 0 -7
6 -5 18 4 50 44 156 65 180 36 8 -10 -1 -13 -39 -14 -92 -2 -204 -102 -216
-193 -7 -49 3 -94 19 -85 7 4 8 3 4 -4 -4 -7 3 -17 18 -23 14 -7 23 -16 19
-22 -3 -6 -1 -7 5 -3 13 8 63 -14 56 -25 -3 -5 2 -9 10 -9 8 0 17 -4 20 -8 3
-5 -8 -9 -24 -9 -16 0 -27 4 -24 9 3 4 -3 9 -13 10 -10 0 -25 2 -33 2 -8 1
-14 8 -12 15 2 8 -3 11 -12 8 -8 -3 -24 3 -36 13 -11 10 -16 20 -10 22 5 2 -1
24 -16 53 -50 98 -12 199 96 257 64 34 75 35 35 3z m465 -37 c0 -5 6 -8 14 -8
21 0 40 -26 25 -36 -7 -4 -9 -3 -6 3 6 10 -28 27 -47 24 -11 -2 -35 32 -29 41
2 5 -3 11 -11 14 -9 3 -16 10 -16 15 0 6 16 -3 35 -18 19 -15 35 -31 35 -35z
m-100 22 c0 -5 -4 -10 -10 -10 -5 0 -10 5 -10 10 0 6 5 10 10 10 6 0 10 -4 10
-10z m-542 -166 c-2 -19 -1 -34 3 -34 7 0 23 -38 21 -50 0 -3 6 -12 14 -22 12
-12 12 -18 3 -24 -7 -4 -10 -3 -7 2 7 11 -17 35 -26 26 -4 -3 -4 2 0 12 4 12
4 17 -2 13 -10 -6 -11 -3 -18 87 -3 43 -1 55 6 42 6 -10 8 -33 6 -52z m332
-210 c0 -8 -19 -13 -24 -6 -3 5 1 9 9 9 8 0 15 -2 15 -3z m80 -2 c0 -5 -7 -9
-15 -9 -8 0 -12 4 -9 9 3 4 9 8 15 8 5 0 9 -4 9 -8z m340 -317 c0 -16 -2 -17
-9 -5 -6 8 -8 17 -5 21 2 4 -3 9 -11 13 -8 3 -15 10 -15 16 0 5 9 2 20 -7 11
-10 20 -27 20 -38z"/>
<path d="M2531 2383 c-15 -34 -10 -37 12 -8 9 13 13 26 8 29 -4 3 -13 -6 -20
-21z"/>
<path d="M2512 2320 c0 -14 2 -19 5 -12 2 6 2 18 0 25 -3 6 -5 1 -5 -13z"/>
<path d="M2550 2165 c7 -9 15 -13 17 -11 7 7 -7 26 -19 26 -6 0 -6 -6 2 -15z"/>
<path d="M2803 2933 c0 -9 4 -10 14 -2 7 6 13 12 13 14 0 1 -6 2 -13 2 -8 0
-14 -6 -14 -14z"/>
<path d="M3021 2786 c-14 -17 -23 -59 -11 -51 10 6 80 -25 80 -37 0 -4 7 -8
16 -8 8 0 12 -5 8 -11 -4 -7 1 -7 15 1 22 11 211 8 276 -5 17 -3 36 -6 43 -7
7 -1 11 -7 8 -14 -3 -8 0 -11 9 -8 15 6 80 -34 71 -44 -4 -3 0 -12 8 -21 8 -9
15 -19 15 -23 1 -5 2 -9 2 -10 3 -7 9 -66 9 -91 0 -28 -25 -87 -36 -87 -3 0
-3 4 0 8 2 4 0 14 -5 22 -7 11 -8 6 -4 -16 4 -24 -1 -35 -21 -53 -14 -12 -29
-19 -35 -16 -5 4 -9 3 -8 -2 4 -22 -3 -24 -23 -7 -12 10 -18 13 -14 7 8 -14
-14 -18 -30 -5 -5 4 -2 0 8 -9 17 -16 16 -17 -5 -17 -96 -3 -161 -13 -179 -28
-16 -16 -17 -19 -3 -27 8 -4 13 -12 10 -17 -3 -5 0 -12 6 -16 8 -4 9 -3 5 4
-13 21 14 13 37 -11 12 -13 30 -26 40 -30 9 -3 17 -14 17 -22 0 -9 4 -14 8
-11 5 3 16 -8 26 -25 9 -16 21 -29 27 -29 5 0 9 -7 9 -16 0 -8 5 -12 10 -9 6
3 10 2 10 -4 0 -6 9 -25 21 -43 12 -18 19 -24 15 -13 -5 20 -5 20 7 1 7 -11
28 -38 47 -60 19 -23 40 -50 46 -61 6 -11 15 -18 19 -17 9 4 29 -26 30 -43 1
-5 7 -9 15 -7 11 3 11 0 0 -13 -11 -13 -10 -14 5 -9 13 6 16 4 10 -6 -5 -8 -3
-11 5 -8 14 4 57 -32 53 -44 -2 -4 5 -4 14 -1 11 4 14 3 9 -6 -4 -6 -4 -11 1
-10 20 4 27 -2 13 -12 -13 -9 -13 -10 1 -6 9 3 25 0 35 -7 17 -12 47 -22 99
-33 11 -3 52 -6 90 -7 39 -1 76 -5 83 -9 7 -5 12 -4 12 2 0 6 6 11 14 11 8 0
16 6 19 13 6 17 -14 58 -25 51 -11 -7 -91 32 -126 61 -51 42 -71 63 -65 69 4
3 -3 6 -15 6 -11 0 -24 5 -28 12 -5 7 -2 8 7 3 8 -4 0 5 -16 21 -44 42 -85
100 -77 109 4 5 2 5 -4 2 -14 -8 -78 58 -69 72 3 6 3 10 -2 9 -12 -4 -73 48
-66 56 3 3 1 12 -5 19 -7 8 -9 17 -5 21 4 4 -1 4 -11 0 -13 -5 -17 -4 -12 4 4
7 2 10 -6 7 -7 -3 -19 4 -27 16 -11 19 -11 21 3 16 8 -3 18 -2 21 3 4 6 11 10
16 10 6 0 7 -4 4 -10 -3 -6 1 -7 9 -4 9 3 13 10 10 15 -3 5 1 9 9 9 8 0 20 7
27 15 7 9 15 14 17 11 3 -2 18 10 34 27 25 26 32 29 40 17 8 -11 9 -9 4 8 -5
19 -3 23 11 20 13 -2 18 4 19 22 1 14 9 43 18 65 17 43 30 156 16 133 -6 -9
-9 -4 -9 15 0 15 -9 45 -19 66 -13 25 -17 42 -10 50 6 8 6 8 -3 1 -18 -15 -26
-12 -24 8 0 9 -3 19 -9 20 -29 11 -45 24 -39 34 4 7 3 8 -4 4 -6 -3 -33 4 -60
17 -71 34 -84 39 -76 25 5 -8 2 -9 -12 -3 -32 15 -464 17 -482 3 -13 -10 -14
-10 -8 0 10 16 1 15 -13 -2z m504 -27 c156 -29 235 -117 235 -260 0 -113 -80
-214 -201 -257 -35 -12 -75 -23 -89 -23 -23 -1 -23 -2 -4 -7 12 -4 95 -90 186
-192 228 -256 274 -295 403 -346 14 -5 -1 -10 -53 -16 -125 -15 -229 24 -331
124 -24 24 -110 122 -191 218 -165 195 -182 213 -225 231 -28 12 -23 13 66 20
140 10 211 44 251 122 59 116 17 251 -96 309 -35 19 -65 23 -208 28 -121 5
-172 11 -184 21 -9 8 -29 19 -43 26 -35 15 400 18 484 2z m222 -414 c0 -8 -4
-12 -9 -9 -5 3 -6 10 -3 15 9 13 12 11 12 -6z"/>
<path d="M3128 2743 c12 -2 30 -2 40 0 9 3 -1 5 -23 4 -22 0 -30 -2 -17 -4z"/>
<path d="M3245 2743 c127 -8 209 -24 256 -50 27 -14 49 -30 49 -35 0 -5 4 -6
10 -3 5 3 20 1 32 -5 15 -7 11 -1 -12 20 -19 16 -39 30 -46 30 -6 0 -17 6 -23
14 -17 20 -123 36 -227 34 -49 -1 -66 -3 -39 -5z"/>
<path d="M3607 2685 c-8 -19 12 -30 26 -16 9 9 8 11 -6 5 -13 -5 -16 -2 -11
10 3 9 4 16 1 16 -3 0 -7 -7 -10 -15z"/>
<path d="M3667 2484 c-3 -30 -15 -74 -27 -96 -13 -26 -18 -44 -12 -50 7 -7 16
11 27 49 18 59 32 153 23 153 -3 0 -8 -25 -11 -56z"/>
<path d="M3621 2464 c0 -11 3 -14 6 -6 3 7 2 16 -1 19 -3 4 -6 -2 -5 -13z"/>
<path d="M3725 2469 c-4 -6 -5 -12 -2 -15 2 -3 7 2 10 11 7 17 1 20 -8 4z"/>
<path d="M3605 2405 c-20 -49 -13 -57 10 -10 9 20 14 39 11 42 -2 3 -12 -12
-21 -32z"/>
<path d="M3709 2415 c-16 -34 -29 -46 -43 -38 -5 4 -6 1 -1 -6 4 -8 -4 -24
-21 -42 -40 -42 -22 -47 20 -5 40 41 69 91 63 109 -2 7 -11 -1 -18 -18z"/>
<path d="M3573 2330 c-7 -26 -84 -70 -156 -90 l-59 -16 27 -32 c15 -18 23 -32
17 -32 -11 0 -37 30 -45 52 -4 11 -12 15 -22 12 -12 -5 -8 -15 22 -48 47 -52
62 -70 165 -198 195 -242 292 -308 448 -307 l45 0 -35 15 c-19 8 -49 26 -66
39 -18 14 -39 23 -46 22 -7 -2 -10 -2 -6 0 9 5 -136 166 -168 187 -17 12 -21
12 -21 1 0 -8 3 -12 7 -10 4 2 12 -7 18 -20 7 -14 15 -25 19 -24 21 3 24 -2
12 -18 -8 -9 -9 -14 -2 -10 14 9 43 -1 43 -15 0 -5 12 -19 27 -32 25 -22 26
-25 13 -42 -14 -18 -14 -18 3 -5 20 16 24 14 29 -14 2 -16 -3 -21 -26 -23 -16
-2 -26 1 -22 6 3 5 -2 9 -12 8 -9 0 -16 5 -14 12 1 6 -4 12 -11 12 -7 0 -21
12 -31 28 -10 15 -15 19 -12 8 6 -16 4 -17 -9 -6 -8 7 -12 16 -9 21 3 5 -2 9
-10 9 -9 0 -16 5 -16 11 0 5 4 7 10 4 6 -3 7 1 3 10 -4 11 -8 13 -13 5 -5 -8
-10 -7 -17 2 -17 22 -25 44 -9 24 9 -11 16 -15 16 -9 0 6 -20 35 -45 64 -25
29 -45 56 -45 61 0 4 -4 8 -10 8 -5 0 -7 -6 -4 -14 3 -8 0 -17 -6 -21 -7 -4
-9 3 -5 23 3 20 0 34 -11 43 -9 7 -29 33 -46 58 -17 25 -48 63 -69 84 -23 22
-34 39 -26 41 6 2 39 11 72 21 110 30 140 44 152 70 18 39 -3 39 -27 0 -22
-36 -34 -43 -45 -25 -3 6 1 7 10 4 9 -4 15 -3 14 2 -3 13 13 48 25 56 7 5 6 8
-2 8 -8 0 -16 -9 -19 -20z m-133 -207 c0 -8 3 -12 8 -9 4 2 12 -7 19 -20 8
-17 8 -26 1 -31 -6 -3 -9 -2 -5 3 3 5 -10 24 -29 43 -18 19 -31 38 -28 43 8
12 34 -11 34 -29z m73 -100 c-4 -10 -2 -14 4 -10 6 4 13 -3 16 -16 5 -20 4
-20 -19 6 -13 16 -22 33 -18 38 9 15 24 0 17 -18z m86 -87 c24 -24 29 -36 20
-41 -7 -5 -10 -4 -7 1 6 9 -9 28 -27 33 -5 2 -9 7 -7 12 1 5 -2 9 -8 9 -5 0
-10 5 -10 10 0 15 3 13 39 -24z m119 -41 c-3 -3 -9 2 -12 12 -6 14 -5 15 5 6
7 -7 10 -15 7 -18z m180 -178 c15 -12 16 -27 1 -27 -5 0 -8 4 -4 9 3 5 1 12
-5 16 -5 3 -10 3 -10 -2 0 -4 -11 -9 -25 -9 -19 -2 -23 1 -16 10 13 15 42 17
59 3z"/>
<path d="M3440 2186 c0 -2 8 -10 18 -17 15 -13 16 -12 3 4 -13 16 -21 21 -21
13z"/>
<path d="M3536 2097 c3 -10 9 -15 12 -12 3 3 0 11 -7 18 -10 9 -11 8 -5 -6z"/>
<path d="M3630 2008 c0 -3 9 -15 20 -28 11 -13 20 -19 20 -13 0 5 -9 18 -20
28 -11 10 -20 16 -20 13z"/>
<path d="M2945 2730 c-3 -4 13 -19 34 -33 48 -32 84 -79 101 -129 14 -45 62
-87 188 -164 11 -7 -33 -66 -58 -79 -39 -20 -45 -20 -148 15 -50 17 -98 30
-108 29 -11 0 15 -11 56 -23 89 -27 152 -54 129 -55 -9 -1 -36 8 -60 19 -48
22 -138 27 -171 9 -11 -6 -22 -8 -25 -5 -3 3 9 12 28 20 28 13 30 15 11 16
-12 0 -41 -12 -65 -27 -23 -15 -45 -27 -48 -26 -3 1 -3 -11 -1 -26 2 -16 -1
-32 -7 -36 -8 -5 -10 2 -6 22 5 25 4 25 -4 6 -14 -32 3 -75 38 -96 38 -22 63
-22 31 0 -39 28 -60 47 -60 56 0 4 5 5 10 2 6 -3 10 0 10 8 0 17 38 67 50 67
5 0 2 -13 -8 -29 -15 -28 -15 -32 1 -66 14 -30 30 -42 85 -66 37 -16 75 -34
85 -39 9 -6 17 -6 17 -2 0 11 -43 46 -61 50 -35 7 -68 25 -62 35 3 5 2 7 -4 4
-5 -3 -17 3 -26 14 -9 10 -14 19 -10 19 4 0 2 5 -5 12 -9 9 -7 15 6 25 9 8 11
12 5 8 -18 -9 -16 10 2 25 8 7 24 10 35 7 13 -3 18 -1 13 5 -4 8 11 9 49 5 65
-8 128 -31 107 -40 -8 -3 2 -3 21 0 19 4 46 13 60 22 23 14 24 14 12 0 -10
-13 -9 -19 3 -29 10 -9 15 -9 15 -1 0 6 -6 11 -12 11 -7 1 0 12 16 25 17 13
34 21 39 18 4 -3 7 3 5 13 -2 12 2 18 10 16 8 -1 11 2 8 7 -4 5 -2 12 4 16 31
19 -3 70 -70 105 -55 29 -100 75 -95 98 3 16 0 19 -13 15 -15 -6 -15 -4 -4 10
14 16 8 42 -8 32 -4 -3 -16 7 -26 22 -9 15 -25 34 -34 43 -13 12 -13 13 0 5
13 -9 13 -8 2 7 -8 9 -20 14 -28 11 -7 -3 -16 1 -19 9 -6 15 -33 20 -40 8z"/>
<path d="M2770 2668 c-15 -21 -17 -28 -6 -19 16 13 41 51 33 51 -2 0 -14 -15
-27 -32z"/>
<path d="M2460 2680 l-45 -7 40 -1 c22 -1 47 3 55 8 8 5 11 9 5 8 -5 0 -30 -4
-55 -8z"/>
<path d="M2665 2685 c-5 -2 -65 -11 -132 -20 -122 -15 -211 -41 -249 -71 -19
-15 -19 -15 1 -6 11 6 23 10 28 11 4 0 21 8 38 17 17 8 33 13 37 10 3 -3 10
-2 16 3 6 4 55 11 109 15 59 4 116 14 145 26 38 15 44 29 7 15z"/>
<path d="M2340 2673 c-8 -2 -22 -7 -30 -10 -8 -4 -18 -5 -22 -5 -5 1 -8 -2 -8
-8 0 -5 -7 -10 -15 -10 -8 0 -22 -11 -31 -26 -10 -14 -23 -23 -31 -20 -8 3
-12 2 -9 -2 11 -18 -12 -35 -54 -41 -3 -1 -6 -10 -6 -20 0 -11 4 -17 8 -15 4
3 5 -2 2 -10 -3 -8 -13 -12 -22 -9 -14 4 -15 3 -2 -6 8 -5 11 -13 7 -17 -3 -4
-13 -1 -21 5 -12 10 -14 9 -12 -3 1 -9 5 -19 9 -22 4 -4 1 -14 -6 -22 -10 -13
-9 -14 2 -7 11 6 13 4 8 -9 -4 -10 -7 -23 -7 -28 0 -6 -3 -8 -7 -4 -10 10 -43
-84 -41 -116 2 -27 21 -43 38 -33 4 3 7 -9 6 -27 -2 -32 18 -135 28 -145 3 -3
1 -15 -5 -26 -9 -15 -8 -18 2 -12 9 6 10 3 5 -11 -6 -17 -5 -17 8 -4 14 14 14
20 0 65 -23 73 -14 176 20 243 16 32 31 50 38 46 6 -4 8 -3 5 3 -8 13 22 55
33 48 5 -3 14 3 19 13 6 11 33 34 61 52 48 31 64 54 22 31 -15 -8 -22 -8 -25
2 -4 9 -6 9 -6 0 -1 -7 0 -15 2 -17 1 -3 -25 -24 -58 -46 -101 -70 -130 -103
-162 -185 -11 -29 -12 -29 -12 -5 -3 80 117 227 226 277 67 31 185 53 285 53
75 0 78 1 62 17 -16 16 -15 18 12 27 15 5 37 18 49 28 16 16 9 14 -40 -7 -39
-18 -98 -32 -172 -41 -98 -13 -157 -28 -238 -60 -18 -7 -19 -6 -5 12 12 17 12
17 0 6 -8 -7 -15 -16 -15 -20 0 -4 -19 -25 -42 -46 -51 -45 -54 -40 -12 19 36
50 97 96 171 130 40 18 47 24 28 24 -14 0 -32 -3 -40 -6z m-196 -214 c3 -3 -5
-11 -17 -18 -12 -8 -19 -10 -15 -6 4 5 3 13 -2 20 -7 8 -4 11 10 10 11 -1 22
-3 24 -6z"/>
<path d="M2194 2628 c-3 -5 -9 -6 -13 -4 -4 3 -8 -2 -8 -10 0 -10 4 -11 10 -5
7 7 16 7 26 -1 9 -7 13 -8 9 -4 -4 5 -3 14 2 21 7 8 5 12 -6 12 -8 0 -17 -4
-20 -9z"/>
<path d="M2809 2623 c-13 -16 -12 -17 4 -4 16 13 21 21 13 21 -2 0 -10 -8 -17
-17z"/>
<path d="M2556 2555 c-52 -21 -100 -56 -144 -105 -69 -77 -68 -221 1 -306 30
-36 111 -94 131 -94 5 0 -11 13 -36 29 -114 72 -155 233 -83 319 15 18 23 38
20 51 -2 11 1 21 7 21 5 0 7 -8 4 -17 -5 -16 -4 -15 9 1 8 10 12 23 9 28 -5 8
60 41 83 41 7 0 11 5 10 11 -1 5 7 11 18 13 11 2 29 8 40 13 11 5 31 11 45 13
16 3 10 5 -15 5 -22 1 -67 -9 -99 -23z m4 -10 c0 -2 -10 -9 -22 -15 -22 -11
-22 -10 -4 4 21 17 26 19 26 11z"/>
<path d="M2420 2548 c-30 -12 -50 -23 -45 -25 6 -2 38 8 70 21 73 31 52 33
-25 4z"/>
<path d="M2107 2531 c-4 -17 -3 -21 5 -13 5 5 8 16 6 23 -3 8 -7 3 -11 -10z"/>
<path d="M2645 2540 c-3 -6 1 -7 9 -4 18 7 21 14 7 14 -6 0 -13 -4 -16 -10z"/>
<path d="M3176 2508 c3 -5 10 -6 15 -3 13 9 11 12 -6 12 -8 0 -12 -4 -9 -9z"/>
<path d="M2259 2493 c-13 -16 -12 -17 4 -4 9 7 17 15 17 17 0 8 -8 3 -21 -13z"/>
<path d="M2366 2475 c-22 -19 -34 -35 -27 -35 7 0 0 -16 -16 -37 -60 -78 -89
-181 -80 -286 8 -94 22 -141 53 -174 21 -23 23 -24 11 -4 -9 13 -13 30 -10 37
3 8 -1 14 -8 14 -7 0 -10 3 -7 6 4 3 0 21 -8 40 -8 19 -10 34 -6 34 9 0 36
-73 37 -97 0 -7 6 -18 13 -25 6 -6 12 -18 12 -26 0 -7 4 -11 8 -8 9 5 63 -45
65 -61 1 -4 6 -7 12 -5 6 1 21 -7 33 -18 29 -27 65 -40 115 -40 33 0 39 -3 27
-11 -11 -8 -7 -9 17 -5 18 3 35 1 38 -4 3 -5 18 -9 33 -9 56 -2 63 -4 57 -19
-4 -12 -3 -12 9 -3 11 9 15 9 18 0 2 -7 10 -10 18 -7 31 10 -40 39 -154 64
-206 43 -264 89 -336 265 -20 49 -30 91 -30 124 1 59 15 45 25 -25 9 -62 48
-156 64 -152 7 1 10 -2 6 -7 -7 -12 65 -62 78 -54 6 3 7 1 4 -4 -4 -6 16 -21
46 -34 45 -20 75 -24 222 -30 94 -3 188 -12 211 -18 43 -12 100 -49 146 -96
23 -23 30 -25 43 -15 8 7 12 17 8 24 -20 33 35 -26 59 -63 22 -36 28 -40 28
-23 0 12 -4 22 -9 22 -5 0 -11 10 -15 23 -6 24 -18 35 -118 106 -70 51 -194
93 -207 72 -9 -14 -56 -15 -111 -2 -25 5 -85 15 -135 20 -197 23 -293 121
-303 308 -4 75 -2 88 23 138 14 30 30 53 35 50 10 -6 72 70 63 79 -10 10 -16
7 -57 -29z m35 5 c-13 -11 -20 -20 -16 -20 4 0 2 -7 -5 -15 -7 -8 -17 -12 -22
-9 -11 7 40 64 56 64 6 -1 0 -10 -13 -20z m192 -577 c-7 -2 -19 -2 -25 0 -7 3
-2 5 12 5 14 0 19 -2 13 -5z m324 -19 c-3 -3 -12 -4 -19 -1 -8 3 -5 6 6 6 11
1 17 -2 13 -5z m57 -15 c-4 -7 -44 0 -44 7 0 2 11 3 24 2 14 -1 23 -5 20 -9z
m54 -29 c17 -11 32 -25 32 -30 0 -6 4 -9 8 -6 12 7 30 -7 34 -28 1 -10 -4 -21
-12 -24 -8 -3 -12 -1 -8 3 4 4 -4 17 -17 30 -14 12 -22 24 -19 27 2 3 -11 13
-31 22 -33 16 -44 26 -27 26 4 0 22 -9 40 -20z"/>
<path d="M3070 1790 c0 -5 5 -10 11 -10 5 0 7 5 4 10 -3 6 -8 10 -11 10 -2 0
-4 -4 -4 -10z"/>
<path d="M2295 2439 c-4 -6 -5 -12 -2 -15 2 -3 7 2 10 11 7 17 1 20 -8 4z"/>
<path d="M2164 2418 l-19 -23 23 19 c21 18 27 26 19 26 -2 0 -12 -10 -23 -22z"/>
<path d="M2330 2360 c-33 -64 -20 -207 24 -275 36 -55 138 -126 178 -124 7 0
3 4 -10 9 -34 14 -160 111 -167 129 -38 93 -44 196 -15 259 24 53 17 55 -10 2z"/>
<path d="M2778 2386 c-36 -13 -79 -46 -59 -46 5 0 13 5 16 10 3 6 11 10 17 10
6 0 -1 -11 -15 -24 -23 -22 -24 -25 -7 -23 10 1 17 3 15 5 -6 7 26 42 60 67
25 18 20 18 -27 1z"/>
<path d="M2978 2389 c29 -5 62 -14 73 -19 10 -6 19 -8 19 -5 0 13 -71 35 -107
34 -34 -1 -33 -2 15 -10z"/>
<path d="M3095 2370 c-3 -5 -3 -10 2 -11 4 0 22 -3 38 -5 l30 -5 -29 16 c-34
18 -33 18 -41 5z"/>
<path d="M2411 2309 c-1 -28 5 -53 15 -65 8 -10 12 -13 9 -5 -4 7 -11 36 -15
65 l-8 51 -1 -46z"/>
<path d="M2188 2303 c-6 -16 -17 -46 -24 -68 l-14 -40 5 40 c4 31 3 35 -5 18
-10 -23 3 -219 15 -231 3 -4 9 -1 13 5 5 8 12 3 20 -15 7 -15 33 -49 58 -77
49 -54 42 -29 -11 41 -66 86 -89 219 -51 299 10 22 21 43 23 48 2 4 -1 7 -7 7
-6 0 -15 -12 -22 -27z"/>
<path d="M2236 2282 c-3 -5 -8 -29 -10 -53 -5 -43 -4 -40 14 29 8 31 7 41 -4
24z"/>
<path d="M2213 2155 c-3 -9 -3 -18 -1 -21 3 -3 8 4 11 16 6 23 -1 27 -10 5z"/>
<path d="M2470 2135 c26 -34 100 -84 100 -67 0 5 -9 12 -21 15 -13 4 -18 10
-13 18 4 7 3 10 -4 5 -6 -3 -16 -1 -24 6 -7 7 -22 20 -33 28 -19 14 -19 14 -5
-5z"/>
<path d="M3364 2020 c0 -13 4 -16 10 -10 7 7 7 13 0 20 -6 6 -10 3 -10 -10z"/>
<path d="M3255 1990 c-4 -6 -1 -18 7 -27 7 -9 12 -18 10 -20 -2 -3 -1 -7 1
-10 8 -7 3 20 -6 35 -5 6 -5 17 -2 22 3 6 4 10 1 10 -3 0 -8 -5 -11 -10z"/>
<path d="M2371 1944 c13 -16 102 -64 116 -64 4 1 -18 14 -49 31 -32 16 -58 34
-58 39 0 6 -5 10 -11 10 -8 0 -7 -5 2 -16z"/>
<path d="M3445 1941 c-3 -5 -2 -12 3 -15 5 -3 9 1 9 9 0 17 -3 19 -12 6z"/>
<path d="M2330 1860 c0 -5 5 -10 11 -10 5 0 7 5 4 10 -3 6 -8 10 -11 10 -2 0
-4 -4 -4 -10z"/>
<path d="M2291 1810 c-18 -17 -26 -30 -18 -30 15 0 63 47 56 55 -3 2 -20 -9
-38 -25z"/>
<path d="M2351 1824 c15 -18 75 -50 132 -70 66 -23 52 -9 -20 22 -38 15 -77
36 -87 46 -24 22 -43 24 -25 2z"/>
<path d="M2598 1833 c7 -3 16 -2 19 1 4 3 -2 6 -13 5 -11 0 -14 -3 -6 -6z"/>
<path d="M2630 1830 c0 -4 20 -10 45 -13 56 -8 100 -30 143 -70 35 -33 45 -25
12 11 -11 12 -20 24 -20 27 0 12 139 -2 156 -16 11 -8 15 -9 11 -2 -5 7 10 3
32 -9 22 -12 37 -26 34 -32 -3 -6 -3 -8 2 -4 4 4 15 2 24 -5 14 -11 14 -9 0
13 -31 47 -97 72 -221 81 -62 4 -137 12 -165 17 -29 5 -53 6 -53 2z"/>
<path d="M3892 1831 c-10 -6 -10 -10 3 -21 13 -11 14 -10 9 5 -6 14 -4 16 6
10 9 -5 11 -4 6 3 -8 14 -7 14 -24 3z"/>
<path d="M2215 1750 c-16 -11 -36 -18 -42 -15 -7 2 -12 0 -10 -6 1 -6 -17 -18
-40 -27 -23 -9 -44 -20 -48 -24 -10 -9 38 3 51 14 7 5 16 7 20 6 5 -2 36 14
69 34 33 21 53 38 45 38 -8 0 -28 -9 -45 -20z"/>
<path d="M2398 1724 c-3 -3 -26 -7 -50 -9 -23 -2 -88 -15 -143 -29 -55 -14
-112 -26 -127 -26 -15 0 -29 -4 -32 -8 -7 -12 79 -5 103 8 11 5 24 9 28 8 4
-2 42 5 83 15 41 9 113 24 160 31 78 13 81 14 34 15 -28 1 -53 -2 -56 -5z"/>
<path d="M2818 1719 c21 -23 13 -33 -10 -13 -23 19 -23 19 -5 -2 22 -26 50
-29 36 -3 -5 10 -15 21 -22 25 -9 5 -9 4 1 -7z"/>
<path d="M2865 1719 c-4 -6 -5 -12 -2 -15 2 -3 7 2 10 11 7 17 1 20 -8 4z"/>
<path d="M3094 1719 c-3 -6 -2 -15 3 -20 5 -5 9 -1 9 11 0 23 -2 24 -12 9z"/>
<path d="M2028 1673 c6 -2 18 -2 25 0 6 3 1 5 -13 5 -14 0 -19 -2 -12 -5z"/>
<path d="M1496 1441 c-4 -5 -13 -8 -20 -5 -32 12 -61 -77 -35 -103 9 -9 9 -20
-1 -44 -12 -28 -12 -33 6 -46 10 -8 20 -18 20 -23 1 -6 2 -13 3 -17 0 -4 6 -2
13 5 15 15 31 16 22 0 -5 -8 -3 -8 7 -2 8 5 25 10 39 10 40 3 42 3 35 14 -3 6
-1 10 5 10 6 0 8 5 4 12 -4 7 -3 8 5 4 6 -4 9 -11 6 -16 -6 -9 44 -24 53 -15
3 3 -3 8 -15 11 -20 6 -20 8 16 85 20 43 39 79 43 79 4 0 25 -36 46 -80 38
-80 38 -80 14 -80 -13 0 -21 4 -18 9 14 22 -7 41 -44 41 -30 0 -40 -5 -45 -21
-9 -26 4 -39 16 -17 16 29 75 -9 63 -41 -3 -10 -1 -11 8 -4 7 5 22 13 32 17
17 6 17 4 6 -11 -8 -10 1 -3 19 16 31 33 32 37 29 102 -2 57 0 69 12 69 12 0
15 -8 12 -35 l-4 -35 47 0 47 0 -4 35 c-3 27 0 35 12 35 12 0 15 -14 15 -77 0
-60 3 -77 13 -75 8 1 11 -2 8 -7 -3 -5 5 -11 18 -13 26 -5 60 14 48 27 -4 5 1
5 10 2 9 -3 19 -1 22 6 3 9 5 8 5 -1 1 -7 6 -10 11 -7 6 3 10 0 10 -8 0 -15
20 -27 46 -27 8 0 14 5 14 10 0 6 -12 10 -26 10 -14 0 -23 4 -20 9 14 22 -7
41 -44 41 -32 0 -39 -4 -44 -25 -4 -14 -13 -25 -21 -25 -10 0 -4 21 23 80 20
43 41 79 45 80 5 0 24 -34 43 -76 22 -49 38 -73 46 -68 6 4 8 3 4 -4 -3 -6 7
-17 23 -25 26 -13 32 -13 42 -1 9 12 15 12 27 2 13 -11 13 -8 -1 12 -21 30
-22 51 -2 44 8 -3 14 -9 13 -12 -4 -14 14 -52 24 -52 6 0 6 6 -2 15 -7 9 -10
18 -7 21 3 3 12 -7 21 -23 8 -15 15 -23 16 -17 0 14 40 26 40 13 0 -5 -5 -9
-12 -9 -6 0 -8 -3 -5 -6 4 -4 14 -1 24 7 15 12 16 12 10 -4 -5 -15 -2 -14 23
4 16 12 27 26 24 31 -3 4 0 9 5 9 6 1 17 2 24 3 21 4 37 -16 33 -40 -3 -14 -1
-22 5 -19 5 4 7 11 4 16 -4 5 -2 9 4 9 5 0 11 -5 13 -12 3 -7 11 -5 25 7 20
17 21 20 7 47 -8 16 -12 34 -8 40 4 6 1 16 -7 22 -17 14 -44 61 -30 51 16 -9
13 4 -4 21 -8 9 -15 12 -15 8 0 -3 -7 -1 -15 6 -11 10 -18 9 -30 -4 -20 -20
-32 -21 -16 -2 9 11 9 16 0 22 -8 4 -9 3 -5 -4 4 -7 2 -12 -4 -12 -6 0 -8 -10
-4 -26 4 -17 3 -25 -3 -21 -5 3 -10 0 -10 -8 0 -8 4 -12 8 -9 5 3 -3 -14 -16
-38 -13 -23 -21 -46 -18 -51 3 -6 1 -7 -5 -3 -8 5 -8 15 -2 32 13 32 12 37 0
29 -14 -9 -12 19 2 33 8 8 8 12 1 12 -6 0 -10 15 -8 38 2 20 1 31 -2 25 -2 -7
-12 -13 -21 -13 -15 0 -15 2 -2 10 8 5 10 10 5 10 -12 0 -35 -20 -35 -31 0 -4
8 -9 18 -11 15 -3 16 -12 12 -83 l-5 -79 -53 64 -54 64 4 -62 c2 -50 0 -62
-12 -62 -12 0 -15 16 -15 80 0 53 4 80 11 80 7 0 31 -25 55 -55 24 -30 47 -54
50 -55 10 0 -2 93 -13 107 -6 7 -15 10 -20 7 -5 -3 -1 -15 9 -27 18 -21 18
-21 -2 -7 -11 8 -26 21 -33 28 -7 6 -18 12 -24 12 -5 0 -8 6 -5 14 4 11 0 13
-16 10 -12 -3 -27 -6 -34 -8 -7 -1 -15 -5 -19 -9 -4 -3 4 -4 17 -2 l24 4 -25
-20 c-14 -11 -19 -18 -12 -14 6 3 12 0 13 -7 5 -57 4 -78 -4 -78 -5 0 -3 -8 4
-17 13 -17 13 -17 -7 -1 -21 18 -32 64 -12 52 7 -5 8 -2 4 5 -5 7 -11 10 -14
7 -9 -9 -44 55 -38 70 3 7 0 16 -6 20 -7 4 -8 3 -4 -4 10 -16 -7 -15 -23 1
-10 10 -12 9 -9 -3 2 -8 -4 -15 -12 -14 -9 1 -17 -7 -18 -17 -4 -47 -5 -49
-18 -38 -9 8 -11 5 -7 -10 4 -16 0 -21 -13 -22 -18 0 -18 -1 1 -9 11 -5 14 -9
7 -9 -7 -1 -11 -5 -7 -10 3 -5 1 -12 -5 -16 -6 -4 -7 -12 -4 -18 4 -7 3 -8 -2
-4 -12 11 -12 147 0 147 6 0 2 6 -8 13 -22 16 -60 15 -62 -1 -3 -25 -5 -27
-14 -12 -7 11 -8 6 -4 -16 4 -23 2 -33 -11 -37 -9 -4 -13 -3 -10 2 3 5 1 12
-5 16 -6 4 -7 12 -3 18 14 22 11 36 -5 30 -11 -5 -13 -3 -7 7 5 9 4 11 -4 6
-6 -4 -8 -12 -5 -18 4 -6 -3 -5 -16 2 -18 10 -21 9 -15 -1 6 -9 3 -11 -8 -6
-9 3 -19 2 -23 -4 -4 -6 -12 -5 -22 3 -15 12 -16 11 -3 -4 7 -10 17 -15 22
-12 13 8 11 -10 -3 -25 -8 -9 -9 -12 -1 -7 8 4 12 -11 15 -49 1 -30 2 -55 0
-55 -4 0 -43 88 -43 97 0 5 -7 19 -16 32 -8 13 -11 21 -6 18 5 -4 10 0 10 8 0
11 -5 12 -20 3 -17 -9 -19 -8 -13 7 5 14 4 16 -7 7 -8 -7 -18 -8 -22 -4 -5 4
-5 2 -2 -4 4 -7 1 -14 -7 -17 -8 -3 -17 -19 -21 -36 -4 -17 -11 -31 -16 -31
-6 0 -7 -5 -3 -12 5 -8 2 -9 -10 -5 -14 6 -16 3 -11 -16 5 -20 5 -20 -5 -4 -7
10 -9 25 -6 33 3 9 1 12 -4 9 -14 -9 -12 19 2 33 13 13 -5 58 -25 60 -7 1 -26
4 -43 8 -18 3 -34 1 -38 -5z m74 -31 c11 -6 17 -17 14 -25 -5 -13 -8 -12 -21
1 -24 23 -77 15 -81 -13 -3 -18 3 -24 25 -28 66 -13 78 -20 81 -46 4 -35 -22
-59 -64 -59 -43 0 -74 15 -74 37 0 14 2 14 19 -1 25 -23 94 -19 99 6 4 18 -18
31 -70 42 -67 15 -52 96 18 96 19 0 44 -5 54 -10z m939 -90 c33 -68 36 -80 21
-80 -11 0 -20 10 -24 25 -5 21 -12 25 -46 25 -39 0 -47 -8 -41 -42 0 -5 -8 -8
-18 -8 -18 0 -16 6 15 70 19 39 34 75 34 80 0 30 25 0 59 -70z m-964 50 c-3
-5 -11 -10 -16 -10 -6 0 -7 5 -4 10 3 6 11 10 16 10 6 0 7 -4 4 -10z m-60 -78
c-3 -3 -11 0 -18 7 -9 10 -8 11 6 5 10 -3 15 -9 12 -12z m49 0 c2 -4 -4 -8
-14 -8 -10 0 -16 4 -14 8 3 4 9 8 14 8 5 0 11 -4 14 -8z"/>
<path d="M2447 1335 l-17 -35 30 0 c35 0 34 -2 17 39 l-13 31 -17 -35z"/>
<path d="M2674 1436 c-3 -9 -14 -16 -23 -17 -12 0 -12 -2 -2 -6 11 -5 11 -7 0
-14 -11 -7 -10 -9 4 -9 10 0 15 -5 12 -10 -4 -6 -12 -7 -18 -3 -7 3 -3 -4 8
-17 11 -13 15 -20 9 -17 -7 4 -15 0 -18 -9 -3 -8 -2 -12 4 -9 15 9 12 -29 -2
-44 -11 -10 -9 -11 5 -5 12 4 17 2 15 -6 -2 -7 3 -15 10 -17 11 -4 13 13 10
81 l-3 86 53 0 c38 0 57 -5 71 -19 22 -22 18 -57 -9 -74 -17 -10 -17 -12 4
-44 39 -60 50 -55 96 45 18 39 36 72 40 72 4 0 23 -36 43 -80 30 -67 33 -80
19 -80 -9 0 -25 -7 -35 -14 -14 -11 -15 -15 -4 -19 8 -3 20 0 26 6 8 8 11 7
11 -3 1 -11 3 -11 11 3 11 19 29 23 29 6 0 -5 -5 -7 -12 -3 -7 5 -8 3 -3 -5 5
-9 11 -9 17 -3 6 6 22 7 40 1 17 -4 28 -6 25 -2 -4 3 1 12 11 19 19 15 36 18
29 7 -3 -5 10 -9 29 -10 24 -2 34 1 34 11 0 8 4 18 10 21 6 4 7 -1 4 -12 -4
-12 0 -10 15 7 17 21 21 22 21 7 0 -11 4 -15 12 -11 8 5 9 2 5 -10 -5 -11 -3
-15 5 -10 7 5 9 2 6 -8 -4 -8 0 -15 8 -15 7 0 10 5 7 10 -4 6 0 8 10 4 10 -3
17 -2 17 3 0 5 8 7 18 4 14 -5 15 -4 2 5 -8 6 -25 11 -38 11 -12 0 -21 3 -21
8 6 34 -2 42 -41 42 -34 0 -41 -4 -46 -25 -4 -15 -13 -25 -24 -25 -14 0 -10
13 24 80 23 44 44 80 47 80 4 0 22 -34 40 -75 30 -66 39 -77 74 -92 22 -9 58
-17 80 -18 22 -1 42 -3 45 -4 18 -8 39 -8 34 0 -3 5 -9 7 -14 4 -4 -3 -13 2
-20 10 -11 13 -7 19 11 17 4 -1 7 9 7 21 0 12 1 27 2 32 6 27 -1 44 -16 38
-14 -5 -14 -3 -3 16 8 11 17 21 22 21 4 0 6 -4 2 -9 -3 -5 -1 -12 3 -15 5 -3
8 -30 7 -61 -2 -48 -1 -54 12 -43 11 9 14 30 11 85 -2 61 0 73 12 73 12 0 15
-8 12 -35 l-4 -35 47 0 47 0 -4 35 c-3 27 0 35 12 35 12 0 15 -14 15 -80 0
-78 -1 -80 -25 -80 -19 0 -21 3 -12 12 7 7 12 22 12 35 0 21 -5 23 -45 23 -43
0 -45 -1 -45 -28 0 -26 15 -52 30 -52 4 0 7 7 7 15 0 8 -3 15 -7 15 -4 0 -7 6
-7 13 0 16 29 18 39 3 4 -6 3 -15 -2 -21 -5 -6 5 -18 30 -31 30 -17 37 -18 33
-6 -4 8 2 21 12 28 14 10 15 14 4 14 -11 0 -13 12 -10 52 3 49 4 51 16 28 8
-16 10 -32 4 -46 -5 -15 -4 -24 4 -27 9 -3 9 -7 0 -19 -15 -18 -7 -29 15 -21
10 4 13 2 8 -5 -4 -8 3 -8 25 -2 25 8 30 7 25 -6 -5 -12 -2 -12 15 -3 12 6 30
9 40 6 10 -3 17 -2 14 3 -3 4 1 10 8 12 17 7 38 -2 32 -13 -4 -5 1 -6 10 -3 8
4 22 1 29 -6 11 -8 20 -8 35 -1 11 6 27 8 37 4 10 -4 15 -2 11 3 -3 5 3 10 13
10 15 0 17 -3 7 -16 -8 -10 -5 -10 9 2 14 12 24 15 32 8 7 -6 10 -7 8 -4 -6 8
24 39 44 46 22 8 42 -16 27 -31 -9 -9 -8 -11 7 -5 10 4 21 2 25 -4 5 -8 17 -5
39 11 32 22 33 23 30 95 l-3 72 52 0 c75 0 107 -39 63 -77 -19 -17 -19 -17 6
-50 22 -29 23 -33 7 -33 -11 0 -26 15 -37 35 -14 25 -26 35 -43 35 -26 0 -28
-7 -13 -44 9 -24 8 -26 -20 -26 -17 0 -30 -4 -30 -9 0 -12 63 -9 72 3 4 6 2
16 -3 22 -7 8 -6 15 2 20 8 5 9 3 4 -6 -6 -10 -4 -12 9 -7 10 4 15 3 11 -4 -4
-5 -1 -16 5 -24 6 -8 9 -18 7 -22 -3 -5 3 -9 13 -9 12 0 16 4 10 11 -10 12 59
13 78 1 12 -7 13 -6 16 17 1 6 7 11 14 10 6 -2 9 4 6 12 -9 22 8 18 38 -10 16
-15 33 -22 43 -19 11 5 14 1 10 -12 -4 -12 -1 -11 6 4 7 12 16 22 22 22 5 0 3
7 -4 16 -8 9 -14 22 -14 28 0 6 -9 29 -19 51 -10 22 -19 50 -19 62 -1 11 -5
19 -8 17 -4 -2 -9 3 -12 11 -6 14 -43 13 -56 -1 -3 -4 3 -4 14 -1 18 6 18 6 4
-6 -19 -15 -62 -95 -64 -120 -1 -10 -8 -23 -15 -30 -8 -8 -11 -8 -7 -1 4 7 0
14 -8 18 -13 4 -12 9 2 35 10 16 21 27 25 25 12 -8 -22 53 -37 66 -19 16 -139
24 -129 8 5 -7 2 -9 -8 -6 -13 5 -15 -2 -12 -43 2 -27 6 -54 9 -59 3 -6 1 -10
-5 -10 -6 0 -8 -4 -5 -10 3 -5 3 -10 -2 -10 -8 1 -43 69 -43 86 -1 24 -40 54
-67 52 -15 -1 -39 4 -52 11 -17 10 -21 10 -16 1 6 -9 -3 -11 -34 -6 -28 4 -40
2 -35 -5 3 -6 -4 -20 -17 -32 -15 -14 -21 -16 -17 -6 15 38 -35 60 -60 26 -16
-21 -32 -14 -33 16 0 12 -3 16 -6 10 -2 -7 -9 -13 -14 -13 -6 0 -8 4 -5 8 3 5
-1 9 -9 9 -8 0 -12 -3 -10 -7 2 -3 -12 -6 -31 -6 -19 0 -34 4 -34 9 0 5 -7 4
-15 -3 -11 -9 -22 -9 -45 -2 -18 7 -32 7 -35 1 -4 -5 -11 -9 -16 -9 -6 0 -7 5
-3 12 5 7 3 8 -5 4 -7 -5 -10 -14 -7 -21 6 -18 -27 -25 -47 -10 -9 7 -14 14
-11 17 2 3 -2 8 -11 12 -9 3 -14 2 -11 -3 3 -5 -2 -12 -12 -16 -19 -7 -28 -4
-24 8 1 5 -2 6 -8 2 -7 -4 -7 -13 1 -28 9 -20 9 -20 -9 2 -12 15 -24 21 -32
16 -8 -5 -11 -4 -6 3 3 6 2 13 -4 17 -5 3 -10 1 -10 -6 0 -9 -3 -9 -14 0 -10
8 -16 9 -21 1 -3 -5 -13 -10 -21 -10 -23 0 -48 -30 -50 -59 -1 -14 -3 -30 -3
-34 -1 -5 -6 -5 -13 -1 -7 4 -8 3 -4 -4 4 -6 13 -9 20 -6 20 8 28 -12 12 -25
-11 -9 -17 -7 -29 10 -16 23 -12 53 6 42 6 -3 7 -1 3 6 -4 6 -11 9 -16 6 -9
-5 -44 50 -45 70 0 5 -14 10 -32 10 -25 1 -30 -2 -21 -12 8 -10 6 -18 -8 -31
-18 -16 -26 -34 -27 -59 0 -7 -4 -10 -9 -7 -4 3 -8 -5 -8 -17 0 -31 -10 -17
-15 20 -3 23 -1 30 8 25 9 -5 9 -3 0 7 -7 7 -13 17 -13 22 0 4 6 5 13 2 6 -4
2 2 -9 12 -20 18 -20 21 -5 31 13 10 12 10 -7 2 -12 -6 -28 -8 -34 -4 -7 4 -8
3 -4 -4 4 -7 3 -12 -3 -12 -5 0 -11 3 -14 8 -2 4 -3 2 -1 -5 4 -17 -8 -24 -22
-12 -8 7 -14 6 -20 -2 -4 -8 -3 -9 5 -5 6 4 14 0 17 -8 3 -9 9 -14 13 -12 4 3
5 -14 2 -36 -6 -44 -35 -65 -62 -46 -11 8 -10 8 5 4 15 -5 14 -1 -7 20 -15 15
-27 32 -27 39 0 20 -26 65 -33 58 -4 -3 -7 -1 -7 7 0 10 -4 10 -17 -1 -13 -11
-15 -11 -9 -1 7 11 4 11 -11 2 -10 -7 -20 -24 -21 -38 -1 -14 -9 -33 -17 -42
-8 -9 -12 -20 -8 -23 6 -7 -11 -11 -32 -8 -5 1 -2 -5 7 -12 10 -8 15 -17 11
-20 -3 -4 -12 2 -20 12 -12 17 -10 23 13 48 21 23 23 29 11 38 -7 5 -12 16
-10 22 3 7 -2 16 -11 19 -9 3 -14 9 -11 13 5 9 -2 10 -82 17 -52 5 -64 3 -69
-10z m1056 -31 c0 -2 -7 -6 -16 -9 -8 -3 -12 -2 -9 4 3 6 -1 10 -9 10 -8 0
-17 4 -21 10 -3 5 7 5 25 -1 16 -6 30 -12 30 -14z m371 5 c18 -10 18 -13 4
-40 -9 -17 -15 -32 -15 -35 0 -3 -6 -13 -15 -21 -8 -9 -13 -20 -10 -25 15 -24
-22 -5 -43 23 -11 14 -9 21 17 47 42 43 20 49 -26 8 l-37 -35 38 -46 c30 -37
34 -46 19 -46 -11 0 -29 17 -43 40 -19 30 -27 37 -38 28 -16 -14 -12 -60 6
-66 6 -2 10 2 9 10 -2 7 -2 10 0 5 3 -4 10 -4 15 -1 6 4 8 2 4 -4 -3 -5 0 -12
6 -14 8 -3 4 -9 -10 -17 -23 -12 -47 -6 -37 10 4 5 -2 9 -12 9 -16 0 -18 9
-18 80 0 65 3 80 15 80 12 0 15 -10 12 -42 l-3 -43 39 40 c31 33 58 50 100 64
2 1 12 -4 23 -9z m-971 -77 c-3 -38 -9 -74 -13 -80 -10 -15 -56 -17 -77 -3
-16 10 -12 12 35 14 l30 1 0 68 c0 53 3 67 15 67 13 0 14 -12 10 -67z m349 58
c26 -16 2 -31 -26 -16 -18 10 -32 11 -45 4 -30 -16 -21 -38 20 -45 20 -4 43
-11 50 -17 15 -12 16 -49 0 -65 -28 -28 -132 -3 -114 27 6 9 11 8 20 -4 18
-25 81 -17 81 10 0 15 -9 21 -35 25 -20 4 -41 10 -48 14 -15 9 -16 48 0 64 14
14 77 16 97 3z m381 -4 c0 -8 -14 -11 -45 -9 -43 4 -45 3 -45 -23 0 -25 3 -27
35 -23 25 3 35 0 35 -10 0 -10 -10 -13 -35 -10 -33 4 -35 2 -35 -24 0 -26 3
-28 43 -28 50 0 80 14 48 23 -14 3 -19 1 -15 -6 5 -9 4 -9 -6 0 -7 6 -20 9
-29 6 -13 -4 -14 -3 -1 5 8 6 17 9 21 6 12 -7 31 25 25 42 -4 11 1 18 15 21
16 5 18 8 7 15 -11 8 -11 9 0 6 8 -2 13 -7 13 -11 -1 -4 -1 -32 -1 -62 0 -44
-3 -53 -15 -49 -8 4 -15 1 -15 -5 0 -7 -22 -11 -57 -11 l-58 0 0 80 0 80 58 0
c39 0 57 -4 57 -13z m300 9 c0 -2 16 -38 35 -80 31 -69 33 -76 15 -76 -12 0
-20 8 -22 23 -3 19 -9 22 -43 22 -34 0 -40 -3 -43 -22 -2 -14 -10 -23 -21 -23
-15 0 -12 12 23 80 23 44 44 80 49 80 4 0 7 -2 7 -4z m398 -76 c38 -80 38 -80
14 -80 -13 0 -21 4 -18 9 14 22 -7 41 -45 41 -33 0 -40 -4 -45 -25 -3 -14 -12
-25 -20 -25 -9 0 -2 24 24 80 20 43 40 79 44 80 4 0 25 -36 46 -80z m-925 64
c-7 -3 -10 -11 -7 -19 4 -10 0 -12 -15 -8 -17 4 -19 8 -10 19 6 8 19 14 28 13
9 0 11 -3 4 -5z"/>
<path d="M4054 1362 c4 -3 14 -7 22 -8 9 -1 13 0 10 4 -4 3 -14 7 -22 8 -9 1
-13 0 -10 -4z"/>
<path d="M4132 1335 c-16 -35 -16 -35 18 -35 l31 0 -16 30 c-9 17 -17 30 -19
30 -1 0 -8 -11 -14 -25z"/>
<path d="M4493 1330 c-11 -29 -10 -30 18 -30 33 0 33 0 17 35 -15 32 -21 32
-35 -5z"/>
<path d="M2275 1420 c-3 -6 1 -7 9 -4 18 7 21 14 7 14 -6 0 -13 -4 -16 -10z"/>
<path d="M3171 1414 c0 -11 3 -14 6 -6 3 7 2 16 -1 19 -3 4 -6 -2 -5 -13z"/>
<path d="M2383 1399 c-2 -23 3 -25 10 -4 4 8 3 16 -1 19 -4 3 -9 -4 -9 -15z"/>
<path d="M2710 1365 c0 -31 3 -35 26 -35 36 0 64 17 64 39 0 22 -19 31 -61 31
-27 0 -29 -3 -29 -35z"/>
<path d="M4295 1355 c0 -22 4 -25 36 -25 20 0 39 6 41 13 10 24 -4 37 -40 37
-33 0 -37 -3 -37 -25z"/>
<path d="M3237 1353 c-2 -10 -8 -26 -12 -35 -6 -15 -2 -18 24 -18 30 0 30 1
19 28 -17 39 -25 46 -31 25z"/>
<path d="M1683 1330 c-11 -29 -10 -30 17 -30 28 0 29 1 19 30 -6 17 -14 30
-18 30 -4 0 -12 -13 -18 -30z"/>
<path d="M2066 1332 l-17 -32 31 0 c33 0 35 4 16 39 l-14 25 -16 -32z"/>
<path d="M2922 1335 c-16 -35 -16 -35 18 -35 l31 0 -16 30 c-9 17 -17 30 -19
30 -1 0 -8 -11 -14 -25z"/>
<path d="M3011 1343 c7 -12 15 -20 18 -17 3 2 -3 12 -13 22 -17 16 -18 16 -5
-5z"/>
<path d="M2712 1280 c3 -36 1 -40 -19 -40 -12 0 -25 5 -28 10 -3 6 -11 10 -18
10 -8 0 -8 -3 1 -12 15 -15 16 -31 0 -22 -6 4 -8 3 -5 -3 3 -5 20 -8 38 -5 24
4 30 2 24 -8 -5 -9 -4 -11 4 -6 6 4 9 12 6 17 -4 5 -2 9 4 9 6 0 13 11 17 25
3 14 10 25 16 25 5 0 6 -4 3 -10 -3 -5 -1 -10 4 -10 6 0 11 -7 11 -15 0 -9 8
-19 18 -22 9 -4 20 -11 24 -17 5 -7 8 -6 8 3 0 11 3 11 17 0 11 -10 14 -10 9
-1 -8 13 6 17 18 5 10 -11 37 -12 30 -2 -3 5 -10 6 -16 3 -7 -4 -8 -2 -4 4 5
8 13 9 25 3 13 -7 18 -6 18 4 0 8 -5 11 -11 8 -6 -3 -3 2 6 12 16 17 19 18 36
2 14 -13 21 -14 30 -5 20 20 -5 48 -43 48 -28 0 -36 -4 -41 -24 -3 -14 -15
-25 -27 -28 -45 -7 -67 3 -90 43 -16 28 -29 39 -46 39 -21 0 -23 -4 -19 -40z"/>
<path d="M1852 1275 c4 -32 2 -35 -21 -35 -13 0 -21 -3 -18 -7 4 -3 1 -13 -6
-22 -11 -14 -10 -14 6 -2 9 8 20 11 23 8 9 -9 32 17 39 45 7 26 31 33 39 11 3
-7 0 -13 -6 -13 -7 0 -6 -5 2 -15 6 -8 9 -18 6 -23 -3 -5 1 -9 9 -9 8 0 12 4
9 9 -3 4 2 5 10 2 9 -3 13 -11 9 -18 -3 -6 -2 -7 2 -3 16 14 13 37 -4 37 -14
0 -16 7 -13 35 l4 35 -47 0 -47 0 4 -35z"/>
<path d="M4614 1286 c-9 -10 -7 -16 10 -26 16 -9 18 -9 9 0 -6 7 -9 19 -6 26
6 17 2 17 -13 0z"/>
<path d="M2744 1227 c0 -13 6 -24 13 -24 9 0 9 6 1 21 -15 30 -16 30 -14 3z"/>
<path d="M3543 1222 c0 -10 8 -18 17 -18 9 0 17 8 17 18 1 11 -5 18 -17 18
-12 0 -18 -7 -17 -18z"/>
<path d="M2440 1221 c0 -6 4 -13 10 -16 6 -3 7 1 4 9 -7 18 -14 21 -14 7z"/>
<path d="M1985 1210 c-3 -6 1 -7 9 -4 18 7 21 14 7 14 -6 0 -13 -4 -16 -10z"/>
<path d="M3885 1179 c-4 -13 -12 -18 -22 -15 -9 4 -13 1 -10 -6 2 -7 -3 -18
-12 -25 -14 -11 -14 -12 0 -13 24 0 47 22 55 53 7 31 -1 37 -11 6z"/>
<path d="M2150 1183 c-8 -3 -20 -12 -26 -19 -9 -12 -71 -15 -324 -18 -202 -2
-315 -7 -322 -14 -8 -8 -2 -10 18 -7 16 2 167 4 337 4 300 1 307 1 307 21 0
11 4 20 10 20 5 0 7 -6 4 -13 -6 -17 14 -34 39 -34 23 0 22 14 -3 22 -18 6
-24 17 -21 38 0 4 0 7 -1 6 -2 0 -10 -3 -18 -6z"/>
<path d="M3900 1150 c0 -20 7 -20 347 -20 190 0 344 3 340 6 -6 6 -303 14
-549 15 -59 0 -110 5 -113 10 -11 16 -25 10 -25 -11z"/>
<path d="M1470 1102 c0 -4 57 -8 128 -8 70 -1 209 -2 308 -4 100 -1 186 0 192
4 10 6 25 -8 35 -34 3 -8 6 0 6 18 l1 32 -335 0 c-184 0 -335 -4 -335 -8z"/>
<path d="M2159 1108 c-1 -2 -3 -13 -4 -25 -2 -19 0 -20 16 -10 11 7 19 15 19
19 0 3 8 9 18 11 9 3 2 5 -15 6 -18 0 -34 0 -34 -1z"/>
<path d="M3816 1098 c3 -5 15 -6 26 -2 13 4 18 2 14 -4 -3 -6 -2 -13 4 -17 6
-4 8 -10 5 -15 -3 -4 5 -5 17 -2 19 5 20 7 6 10 -10 2 -18 8 -18 13 0 6 5 7
11 3 7 -4 10 -1 7 7 -3 8 -20 14 -41 15 -20 1 -34 -3 -31 -8z"/>
<path d="M3905 1100 c-3 -5 -2 -17 3 -26 8 -15 10 -15 15 0 5 13 37 15 254 15
249 0 411 6 421 16 3 3 -150 5 -341 5 -218 0 -348 -4 -352 -10z"/>
</g>
</svg>
